<svg width="24" height="24" viewBox="0 0 24 24" fill="none" xmlns="http://www.w3.org/2000/svg">
<path d="M22.5396 6.42003C22.4208 5.94544 22.1789 5.5106 21.8382 5.15944C21.4976 4.80827 21.0703 4.55322 20.5996 4.42003C18.8796 4.00003 11.9996 4.00003 11.9996 4.00003C11.9996 4.00003 5.1196 4.00003 3.3996 4.46003C2.92884 4.59322 2.50157 4.84827 2.16094 5.19944C1.82031 5.5506 1.57838 5.98544 1.4596 6.46003C1.14481 8.20559 0.990831 9.97634 0.999595 11.75C0.988374 13.5371 1.14236 15.3213 1.4596 17.08C1.59055 17.5399 1.8379 17.9582 2.17774 18.2945C2.51758 18.6308 2.93842 18.8738 3.3996 19C5.1196 19.46 11.9996 19.46 11.9996 19.46C11.9996 19.46 18.8796 19.46 20.5996 19C21.0703 18.8668 21.4976 18.6118 21.8382 18.2606C22.1789 17.9095 22.4208 17.4746 22.5396 17C22.852 15.2676 23.0059 13.5104 22.9996 11.75C23.0108 9.96299 22.8568 8.17873 22.5396 6.42003Z" stroke="#FFFAF1" stroke-width="2" stroke-linecap="round" stroke-linejoin="round"/>
<path d="M9.75 15.02L15.5 11.75L9.75 8.48004V15.02Z" stroke="#FFFAF1" stroke-width="2" stroke-linecap="round" stroke-linejoin="round"/>
</svg>
